<svg width="126" height="141" viewBox="0 0 126 141" fill="none" xmlns="http://www.w3.org/2000/svg">
<ellipse cx="3.31576" cy="3.71136" rx="3.31576" ry="3.7105" fill="#E70FAA"/>
<ellipse cx="3.31576" cy="18.5533" rx="3.31576" ry="3.7105" fill="#E70FAA"/>
<ellipse cx="3.31576" cy="33.3959" rx="3.31576" ry="3.7105" fill="#E70FAA"/>
<ellipse cx="3.31576" cy="48.238" rx="3.31576" ry="3.7105" fill="#E70FAA"/>
<ellipse cx="3.31576" cy="63.0798" rx="3.31576" ry="3.7105" fill="#E70FAA"/>
<ellipse cx="16.5799" cy="3.71148" rx="3.31576" ry="3.7105" fill="#E70FAA"/>
<ellipse cx="16.5799" cy="18.5533" rx="3.31576" ry="3.7105" fill="#E70FAA"/>
<ellipse cx="16.5799" cy="33.3959" rx="3.31576" ry="3.7105" fill="#E70FAA"/>
<ellipse cx="16.5799" cy="48.238" rx="3.31576" ry="3.7105" fill="#E70FAA"/>
<ellipse cx="16.5799" cy="63.0798" rx="3.31576" ry="3.7105" fill="#E70FAA"/>
<ellipse cx="29.8416" cy="3.71148" rx="3.31576" ry="3.7105" fill="#E70FAA"/>
<ellipse cx="29.8416" cy="18.5533" rx="3.31576" ry="3.7105" fill="#E70FAA"/>
<ellipse cx="29.8416" cy="33.3959" rx="3.31576" ry="3.7105" fill="#E70FAA"/>
<ellipse cx="29.8416" cy="48.238" rx="3.31576" ry="3.7105" fill="#E70FAA"/>
<ellipse cx="29.8416" cy="63.0798" rx="3.31576" ry="3.7105" fill="#E70FAA"/>
<ellipse cx="43.1034" cy="3.71148" rx="3.31576" ry="3.7105" fill="#E70FAA"/>
<ellipse cx="43.1034" cy="18.5533" rx="3.31576" ry="3.7105" fill="#E70FAA"/>
<ellipse cx="43.1034" cy="33.3959" rx="3.31576" ry="3.7105" fill="#E70FAA"/>
<ellipse cx="43.1034" cy="48.238" rx="3.31576" ry="3.7105" fill="#E70FAA"/>
<ellipse cx="43.1034" cy="63.0798" rx="3.31576" ry="3.7105" fill="#E70FAA"/>
<ellipse cx="56.3675" cy="3.71148" rx="3.31576" ry="3.7105" fill="#E70FAA"/>
<ellipse cx="56.3675" cy="18.5533" rx="3.31576" ry="3.7105" fill="#E70FAA"/>
<ellipse cx="56.3675" cy="33.3959" rx="3.31576" ry="3.7105" fill="#E70FAA"/>
<ellipse cx="56.3675" cy="48.238" rx="3.31576" ry="3.7105" fill="#E70FAA"/>
<ellipse cx="56.3675" cy="63.0798" rx="3.31576" ry="3.7105" fill="#E70FAA"/>
<ellipse cx="3.31576" cy="77.9211" rx="3.31576" ry="3.7105" fill="#E70FAA"/>
<ellipse cx="3.31576" cy="92.7646" rx="3.31576" ry="3.7105" fill="#E70FAA"/>
<ellipse cx="3.31576" cy="107.605" rx="3.31576" ry="3.7105" fill="#E70FAA"/>
<ellipse cx="3.31576" cy="122.447" rx="3.31576" ry="3.7105" fill="#E70FAA"/>
<ellipse cx="3.31576" cy="137.29" rx="3.31576" ry="3.7105" fill="#E70FAA"/>
<ellipse cx="16.5799" cy="77.9212" rx="3.31576" ry="3.7105" fill="#E70FAA"/>
<ellipse cx="16.5799" cy="92.7646" rx="3.31576" ry="3.7105" fill="#E70FAA"/>
<ellipse cx="16.5799" cy="107.605" rx="3.31576" ry="3.7105" fill="#E70FAA"/>
<ellipse cx="16.5799" cy="122.447" rx="3.31576" ry="3.7105" fill="#E70FAA"/>
<ellipse cx="16.5799" cy="137.29" rx="3.31576" ry="3.7105" fill="#E70FAA"/>
<ellipse cx="29.8416" cy="77.9212" rx="3.31576" ry="3.7105" fill="#E70FAA"/>
<ellipse cx="29.8416" cy="92.7646" rx="3.31576" ry="3.7105" fill="#E70FAA"/>
<ellipse cx="29.8416" cy="107.605" rx="3.31576" ry="3.7105" fill="#E70FAA"/>
<ellipse cx="29.8416" cy="122.447" rx="3.31576" ry="3.7105" fill="#E70FAA"/>
<ellipse cx="29.8416" cy="137.29" rx="3.31576" ry="3.7105" fill="#E70FAA"/>
<ellipse cx="43.1034" cy="77.9212" rx="3.31576" ry="3.7105" fill="#E70FAA"/>
<ellipse cx="43.1034" cy="92.7646" rx="3.31576" ry="3.7105" fill="#E70FAA"/>
<ellipse cx="43.1034" cy="107.605" rx="3.31576" ry="3.7105" fill="#E70FAA"/>
<ellipse cx="43.1034" cy="122.447" rx="3.31576" ry="3.7105" fill="#E70FAA"/>
<ellipse cx="43.1034" cy="137.29" rx="3.31576" ry="3.7105" fill="#E70FAA"/>
<ellipse cx="56.3675" cy="77.9212" rx="3.31576" ry="3.7105" fill="#E70FAA"/>
<ellipse cx="56.3675" cy="92.7646" rx="3.31576" ry="3.7105" fill="#E70FAA"/>
<ellipse cx="56.3675" cy="107.605" rx="3.31576" ry="3.7105" fill="#E70FAA"/>
<ellipse cx="56.3675" cy="122.447" rx="3.31576" ry="3.7105" fill="#E70FAA"/>
<ellipse cx="56.3675" cy="137.29" rx="3.31576" ry="3.7105" fill="#E70FAA"/>
<ellipse cx="69.6292" cy="3.7105" rx="3.31576" ry="3.7105" fill="#E70FAA"/>
<ellipse cx="69.6292" cy="18.5525" rx="3.31576" ry="3.7105" fill="#E70FAA"/>
<ellipse cx="69.6292" cy="33.3958" rx="3.31576" ry="3.7105" fill="#E70FAA"/>
<ellipse cx="69.6292" cy="48.2372" rx="3.31576" ry="3.7105" fill="#E70FAA"/>
<ellipse cx="69.6292" cy="63.079" rx="3.31576" ry="3.7105" fill="#E70FAA"/>
<ellipse cx="82.8963" cy="3.7105" rx="3.31576" ry="3.7105" fill="#E70FAA"/>
<ellipse cx="82.8963" cy="18.5525" rx="3.31576" ry="3.7105" fill="#E70FAA"/>
<ellipse cx="82.8963" cy="33.3958" rx="3.31576" ry="3.7105" fill="#E70FAA"/>
<ellipse cx="82.8963" cy="48.2372" rx="3.31576" ry="3.7105" fill="#E70FAA"/>
<ellipse cx="82.8963" cy="63.079" rx="3.31576" ry="3.7105" fill="#E70FAA"/>
<ellipse cx="96.1581" cy="3.7105" rx="3.31576" ry="3.7105" fill="#E70FAA"/>
<ellipse cx="96.1581" cy="18.5525" rx="3.31576" ry="3.7105" fill="#E70FAA"/>
<ellipse cx="96.1581" cy="33.3958" rx="3.31576" ry="3.7105" fill="#E70FAA"/>
<ellipse cx="96.1581" cy="48.2372" rx="3.31576" ry="3.7105" fill="#E70FAA"/>
<ellipse cx="96.1581" cy="63.079" rx="3.31576" ry="3.7105" fill="#E70FAA"/>
<ellipse cx="109.42" cy="3.7105" rx="3.31576" ry="3.7105" fill="#E70FAA"/>
<ellipse cx="109.42" cy="18.5525" rx="3.31576" ry="3.7105" fill="#E70FAA"/>
<ellipse cx="109.42" cy="33.3958" rx="3.31576" ry="3.7105" fill="#E70FAA"/>
<ellipse cx="109.42" cy="48.2372" rx="3.31576" ry="3.7105" fill="#E70FAA"/>
<ellipse cx="109.42" cy="63.079" rx="3.31576" ry="3.7105" fill="#E70FAA"/>
<ellipse cx="122.684" cy="3.7105" rx="3.31576" ry="3.7105" fill="#E70FAA"/>
<ellipse cx="122.684" cy="18.5525" rx="3.31576" ry="3.7105" fill="#E70FAA"/>
<ellipse cx="122.684" cy="33.3958" rx="3.31576" ry="3.7105" fill="#E70FAA"/>
<ellipse cx="122.684" cy="48.2372" rx="3.31576" ry="3.7105" fill="#E70FAA"/>
<ellipse cx="122.684" cy="63.079" rx="3.31576" ry="3.7105" fill="#E70FAA"/>
<ellipse cx="69.6292" cy="77.9202" rx="3.31576" ry="3.7105" fill="#E70FAA"/>
<ellipse cx="69.6292" cy="92.7635" rx="3.31576" ry="3.7105" fill="#E70FAA"/>
<ellipse cx="69.6292" cy="107.604" rx="3.31576" ry="3.7105" fill="#E70FAA"/>
<ellipse cx="69.6292" cy="122.446" rx="3.31576" ry="3.7105" fill="#E70FAA"/>
<ellipse cx="69.6292" cy="137.289" rx="3.31576" ry="3.7105" fill="#E70FAA"/>
<ellipse cx="82.8963" cy="77.9205" rx="3.31576" ry="3.7105" fill="#E70FAA"/>
<ellipse cx="82.8963" cy="92.7635" rx="3.31576" ry="3.7105" fill="#E70FAA"/>
<ellipse cx="82.8963" cy="107.604" rx="3.31576" ry="3.7105" fill="#E70FAA"/>
<ellipse cx="82.8963" cy="122.446" rx="3.31576" ry="3.7105" fill="#E70FAA"/>
<ellipse cx="82.8963" cy="137.289" rx="3.31576" ry="3.7105" fill="#E70FAA"/>
<ellipse cx="96.1581" cy="77.9205" rx="3.31576" ry="3.7105" fill="#E70FAA"/>
<ellipse cx="96.1581" cy="92.7635" rx="3.31576" ry="3.7105" fill="#E70FAA"/>
<ellipse cx="96.1581" cy="107.604" rx="3.31576" ry="3.7105" fill="#E70FAA"/>
<ellipse cx="96.1581" cy="122.446" rx="3.31576" ry="3.7105" fill="#E70FAA"/>
<ellipse cx="96.1581" cy="137.289" rx="3.31576" ry="3.7105" fill="#E70FAA"/>
<ellipse cx="109.42" cy="77.9205" rx="3.31576" ry="3.7105" fill="#E70FAA"/>
<ellipse cx="109.42" cy="92.7635" rx="3.31576" ry="3.7105" fill="#E70FAA"/>
<ellipse cx="109.42" cy="107.604" rx="3.31576" ry="3.7105" fill="#E70FAA"/>
<ellipse cx="109.42" cy="122.446" rx="3.31576" ry="3.7105" fill="#E70FAA"/>
<ellipse cx="109.42" cy="137.289" rx="3.31576" ry="3.7105" fill="#E70FAA"/>
<ellipse cx="122.684" cy="77.9205" rx="3.31576" ry="3.7105" fill="#E70FAA"/>
<ellipse cx="122.684" cy="92.7635" rx="3.31576" ry="3.7105" fill="#E70FAA"/>
<ellipse cx="122.684" cy="107.604" rx="3.31576" ry="3.7105" fill="#E70FAA"/>
<ellipse cx="122.684" cy="122.446" rx="3.31576" ry="3.7105" fill="#E70FAA"/>
<ellipse cx="122.684" cy="137.289" rx="3.31576" ry="3.7105" fill="#E70FAA"/>
</svg>
