<svg width="349" height="349" viewBox="0 0 349 349" fill="none" xmlns="http://www.w3.org/2000/svg">
<mask id="mask0_187_1297" style="mask-type:alpha" maskUnits="userSpaceOnUse" x="0" y="0" width="349" height="349">
<circle cx="174.5" cy="174.5" r="174.5" fill="#D9D9D9"/>
</mask>
<g mask="url(#mask0_187_1297)">
<ellipse cx="4.53898" cy="7.37656" rx="4.53898" ry="4.67515" fill="#E70FAA"/>
<ellipse cx="4.53898" cy="26.078" rx="4.53898" ry="4.67515" fill="#E70FAA"/>
<ellipse cx="4.53898" cy="44.7784" rx="4.53898" ry="4.67515" fill="#E70FAA"/>
<ellipse cx="4.53898" cy="63.4791" rx="4.53898" ry="4.67515" fill="#E70FAA"/>
<ellipse cx="22.6967" cy="7.37656" rx="4.53898" ry="4.67515" fill="#E70FAA"/>
<ellipse cx="22.6967" cy="26.078" rx="4.53898" ry="4.67515" fill="#E70FAA"/>
<ellipse cx="22.6967" cy="44.7784" rx="4.53898" ry="4.67515" fill="#E70FAA"/>
<ellipse cx="22.6967" cy="63.4791" rx="4.53898" ry="4.67515" fill="#E70FAA"/>
<ellipse cx="40.8505" cy="7.37656" rx="4.53898" ry="4.67515" fill="#E70FAA"/>
<ellipse cx="40.8505" cy="26.078" rx="4.53898" ry="4.67515" fill="#E70FAA"/>
<ellipse cx="40.8505" cy="44.7784" rx="4.53898" ry="4.67515" fill="#E70FAA"/>
<ellipse cx="40.8505" cy="63.4791" rx="4.53898" ry="4.67515" fill="#E70FAA"/>
<ellipse cx="59.0048" cy="7.37656" rx="4.53898" ry="4.67515" fill="#E70FAA"/>
<ellipse cx="59.0048" cy="26.078" rx="4.53898" ry="4.67515" fill="#E70FAA"/>
<ellipse cx="59.0048" cy="44.7784" rx="4.53898" ry="4.67515" fill="#E70FAA"/>
<ellipse cx="59.0048" cy="63.4791" rx="4.53898" ry="4.67515" fill="#E70FAA"/>
<ellipse cx="77.1625" cy="7.37656" rx="4.53898" ry="4.67515" fill="#E70FAA"/>
<ellipse cx="77.1625" cy="26.078" rx="4.53898" ry="4.67515" fill="#E70FAA"/>
<ellipse cx="77.1625" cy="44.7784" rx="4.53898" ry="4.67515" fill="#E70FAA"/>
<ellipse cx="77.1625" cy="63.4791" rx="4.53898" ry="4.67515" fill="#E70FAA"/>
<ellipse cx="4.53898" cy="82.4037" rx="4.53898" ry="4.67515" fill="#E70FAA"/>
<ellipse cx="4.53898" cy="101.106" rx="4.53898" ry="4.67515" fill="#E70FAA"/>
<ellipse cx="4.53898" cy="119.805" rx="4.53898" ry="4.67515" fill="#E70FAA"/>
<ellipse cx="4.53898" cy="138.505" rx="4.53898" ry="4.67515" fill="#E70FAA"/>
<ellipse cx="4.53898" cy="157.207" rx="4.53898" ry="4.67515" fill="#E70FAA"/>
<ellipse cx="22.6967" cy="82.4037" rx="4.53898" ry="4.67515" fill="#E70FAA"/>
<ellipse cx="22.6967" cy="101.106" rx="4.53898" ry="4.67515" fill="#E70FAA"/>
<ellipse cx="22.6967" cy="119.805" rx="4.53898" ry="4.67515" fill="#E70FAA"/>
<ellipse cx="22.6967" cy="138.505" rx="4.53898" ry="4.67515" fill="#E70FAA"/>
<ellipse cx="22.6967" cy="157.207" rx="4.53898" ry="4.67515" fill="#E70FAA"/>
<ellipse cx="40.8505" cy="82.4037" rx="4.53898" ry="4.67515" fill="#E70FAA"/>
<ellipse cx="40.8505" cy="101.106" rx="4.53898" ry="4.67515" fill="#E70FAA"/>
<ellipse cx="40.8505" cy="119.805" rx="4.53898" ry="4.67515" fill="#E70FAA"/>
<ellipse cx="40.8505" cy="138.505" rx="4.53898" ry="4.67515" fill="#E70FAA"/>
<ellipse cx="40.8505" cy="157.207" rx="4.53898" ry="4.67515" fill="#E70FAA"/>
<ellipse cx="59.0048" cy="82.4037" rx="4.53898" ry="4.67515" fill="#E70FAA"/>
<ellipse cx="59.0048" cy="101.106" rx="4.53898" ry="4.67515" fill="#E70FAA"/>
<ellipse cx="59.0048" cy="119.805" rx="4.53898" ry="4.67515" fill="#E70FAA"/>
<ellipse cx="59.0048" cy="138.505" rx="4.53898" ry="4.67515" fill="#E70FAA"/>
<ellipse cx="59.0048" cy="157.207" rx="4.53898" ry="4.67515" fill="#E70FAA"/>
<ellipse cx="77.1625" cy="82.4037" rx="4.53898" ry="4.67515" fill="#E70FAA"/>
<ellipse cx="77.1625" cy="101.106" rx="4.53898" ry="4.67515" fill="#E70FAA"/>
<ellipse cx="77.1625" cy="119.805" rx="4.53898" ry="4.67515" fill="#E70FAA"/>
<ellipse cx="77.1625" cy="138.505" rx="4.53898" ry="4.67515" fill="#E70FAA"/>
<ellipse cx="77.1625" cy="157.207" rx="4.53898" ry="4.67515" fill="#E70FAA"/>
<ellipse cx="95.8227" cy="7.37583" rx="4.53898" ry="4.67515" fill="#E70FAA"/>
<ellipse cx="95.8227" cy="26.078" rx="4.53898" ry="4.67515" fill="#E70FAA"/>
<ellipse cx="95.8227" cy="44.7777" rx="4.53898" ry="4.67515" fill="#E70FAA"/>
<ellipse cx="95.8227" cy="63.4781" rx="4.53898" ry="4.67515" fill="#E70FAA"/>
<ellipse cx="113.983" cy="7.37583" rx="4.53898" ry="4.67515" fill="#E70FAA"/>
<ellipse cx="113.983" cy="26.078" rx="4.53898" ry="4.67515" fill="#E70FAA"/>
<ellipse cx="113.983" cy="44.7777" rx="4.53898" ry="4.67515" fill="#E70FAA"/>
<ellipse cx="113.983" cy="63.4781" rx="4.53898" ry="4.67515" fill="#E70FAA"/>
<ellipse cx="132.138" cy="7.37583" rx="4.53898" ry="4.67515" fill="#E70FAA"/>
<ellipse cx="132.138" cy="26.078" rx="4.53898" ry="4.67515" fill="#E70FAA"/>
<ellipse cx="132.138" cy="44.7777" rx="4.53898" ry="4.67515" fill="#E70FAA"/>
<ellipse cx="132.138" cy="63.4781" rx="4.53898" ry="4.67515" fill="#E70FAA"/>
<ellipse cx="150.291" cy="7.37583" rx="4.53898" ry="4.67515" fill="#E70FAA"/>
<ellipse cx="150.291" cy="26.078" rx="4.53898" ry="4.67515" fill="#E70FAA"/>
<ellipse cx="150.291" cy="44.7777" rx="4.53898" ry="4.67515" fill="#E70FAA"/>
<ellipse cx="150.291" cy="63.4781" rx="4.53898" ry="4.67515" fill="#E70FAA"/>
<ellipse cx="168.449" cy="7.37583" rx="4.53898" ry="4.67515" fill="#E70FAA"/>
<ellipse cx="168.449" cy="26.078" rx="4.53898" ry="4.67515" fill="#E70FAA"/>
<ellipse cx="168.449" cy="44.7777" rx="4.53898" ry="4.67515" fill="#E70FAA"/>
<ellipse cx="168.449" cy="63.4781" rx="4.53898" ry="4.67515" fill="#E70FAA"/>
<ellipse cx="95.8227" cy="82.4027" rx="4.53898" ry="4.67515" fill="#E70FAA"/>
<ellipse cx="95.8227" cy="101.105" rx="4.53898" ry="4.67515" fill="#E70FAA"/>
<ellipse cx="95.8227" cy="119.804" rx="4.53898" ry="4.67515" fill="#E70FAA"/>
<ellipse cx="95.8227" cy="138.504" rx="4.53898" ry="4.67515" fill="#E70FAA"/>
<ellipse cx="95.8227" cy="157.206" rx="4.53898" ry="4.67515" fill="#E70FAA"/>
<ellipse cx="113.983" cy="82.4027" rx="4.53898" ry="4.67515" fill="#E70FAA"/>
<ellipse cx="113.983" cy="101.105" rx="4.53898" ry="4.67515" fill="#E70FAA"/>
<ellipse cx="113.983" cy="119.804" rx="4.53898" ry="4.67515" fill="#E70FAA"/>
<ellipse cx="113.983" cy="138.504" rx="4.53898" ry="4.67515" fill="#E70FAA"/>
<ellipse cx="113.983" cy="157.206" rx="4.53898" ry="4.67515" fill="#E70FAA"/>
<ellipse cx="132.138" cy="82.4027" rx="4.53898" ry="4.67515" fill="#E70FAA"/>
<ellipse cx="132.138" cy="101.105" rx="4.53898" ry="4.67515" fill="#E70FAA"/>
<ellipse cx="132.138" cy="119.804" rx="4.53898" ry="4.67515" fill="#E70FAA"/>
<ellipse cx="132.138" cy="138.504" rx="4.53898" ry="4.67515" fill="#E70FAA"/>
<ellipse cx="132.138" cy="157.206" rx="4.53898" ry="4.67515" fill="#E70FAA"/>
<ellipse cx="150.291" cy="82.4027" rx="4.53898" ry="4.67515" fill="#E70FAA"/>
<ellipse cx="150.291" cy="101.105" rx="4.53898" ry="4.67515" fill="#E70FAA"/>
<ellipse cx="150.291" cy="119.804" rx="4.53898" ry="4.67515" fill="#E70FAA"/>
<ellipse cx="150.291" cy="138.504" rx="4.53898" ry="4.67515" fill="#E70FAA"/>
<ellipse cx="150.291" cy="157.206" rx="4.53898" ry="4.67515" fill="#E70FAA"/>
<ellipse cx="168.449" cy="82.4027" rx="4.53898" ry="4.67515" fill="#E70FAA"/>
<ellipse cx="168.449" cy="101.105" rx="4.53898" ry="4.67515" fill="#E70FAA"/>
<ellipse cx="168.449" cy="119.804" rx="4.53898" ry="4.67515" fill="#E70FAA"/>
<ellipse cx="168.449" cy="138.504" rx="4.53898" ry="4.67515" fill="#E70FAA"/>
<ellipse cx="168.449" cy="157.206" rx="4.53898" ry="4.67515" fill="#E70FAA"/>
<ellipse cx="187.109" cy="82.4029" rx="4.53898" ry="4.67515" fill="#E70FAA"/>
<ellipse cx="187.109" cy="101.105" rx="4.53898" ry="4.67515" fill="#E70FAA"/>
<ellipse cx="187.109" cy="119.804" rx="4.53898" ry="4.67515" fill="#E70FAA"/>
<ellipse cx="187.109" cy="138.504" rx="4.53898" ry="4.67515" fill="#E70FAA"/>
<ellipse cx="187.109" cy="157.206" rx="4.53898" ry="4.67515" fill="#E70FAA"/>
<ellipse cx="205.27" cy="82.4029" rx="4.53898" ry="4.67515" fill="#E70FAA"/>
<ellipse cx="205.27" cy="101.105" rx="4.53898" ry="4.67515" fill="#E70FAA"/>
<ellipse cx="205.27" cy="119.804" rx="4.53898" ry="4.67515" fill="#E70FAA"/>
<ellipse cx="205.27" cy="138.504" rx="4.53898" ry="4.67515" fill="#E70FAA"/>
<ellipse cx="205.27" cy="157.206" rx="4.53898" ry="4.67515" fill="#E70FAA"/>
<ellipse cx="223.425" cy="82.4029" rx="4.53898" ry="4.67515" fill="#E70FAA"/>
<ellipse cx="223.425" cy="101.105" rx="4.53898" ry="4.67515" fill="#E70FAA"/>
<ellipse cx="223.425" cy="119.804" rx="4.53898" ry="4.67515" fill="#E70FAA"/>
<ellipse cx="223.425" cy="138.504" rx="4.53898" ry="4.67515" fill="#E70FAA"/>
<ellipse cx="223.425" cy="157.206" rx="4.53898" ry="4.67515" fill="#E70FAA"/>
<ellipse cx="241.578" cy="82.4029" rx="4.53898" ry="4.67515" fill="#E70FAA"/>
<ellipse cx="241.578" cy="101.105" rx="4.53898" ry="4.67515" fill="#E70FAA"/>
<ellipse cx="241.578" cy="119.804" rx="4.53898" ry="4.67515" fill="#E70FAA"/>
<ellipse cx="241.578" cy="138.504" rx="4.53898" ry="4.67515" fill="#E70FAA"/>
<ellipse cx="241.578" cy="157.206" rx="4.53898" ry="4.67515" fill="#E70FAA"/>
<ellipse cx="259.737" cy="82.4029" rx="4.53898" ry="4.67515" fill="#E70FAA"/>
<ellipse cx="259.737" cy="101.105" rx="4.53898" ry="4.67515" fill="#E70FAA"/>
<ellipse cx="259.737" cy="119.804" rx="4.53898" ry="4.67515" fill="#E70FAA"/>
<ellipse cx="259.737" cy="138.504" rx="4.53898" ry="4.67515" fill="#E70FAA"/>
<ellipse cx="259.737" cy="157.206" rx="4.53898" ry="4.67515" fill="#E70FAA"/>
<ellipse cx="187.109" cy="176.131" rx="4.53898" ry="4.67515" fill="#E70FAA"/>
<ellipse cx="187.109" cy="194.833" rx="4.53898" ry="4.67515" fill="#E70FAA"/>
<ellipse cx="187.109" cy="213.532" rx="4.53898" ry="4.67515" fill="#E70FAA"/>
<ellipse cx="187.109" cy="232.232" rx="4.53898" ry="4.67515" fill="#E70FAA"/>
<ellipse cx="187.109" cy="250.934" rx="4.53898" ry="4.67515" fill="#E70FAA"/>
<ellipse cx="205.27" cy="176.131" rx="4.53898" ry="4.67515" fill="#E70FAA"/>
<ellipse cx="205.27" cy="194.833" rx="4.53898" ry="4.67515" fill="#E70FAA"/>
<ellipse cx="205.27" cy="213.532" rx="4.53898" ry="4.67515" fill="#E70FAA"/>
<ellipse cx="205.27" cy="232.232" rx="4.53898" ry="4.67515" fill="#E70FAA"/>
<ellipse cx="205.27" cy="250.934" rx="4.53898" ry="4.67515" fill="#E70FAA"/>
<ellipse cx="223.425" cy="176.131" rx="4.53898" ry="4.67515" fill="#E70FAA"/>
<ellipse cx="223.425" cy="194.833" rx="4.53898" ry="4.67515" fill="#E70FAA"/>
<ellipse cx="223.425" cy="213.532" rx="4.53898" ry="4.67515" fill="#E70FAA"/>
<ellipse cx="223.425" cy="232.232" rx="4.53898" ry="4.67515" fill="#E70FAA"/>
<ellipse cx="223.425" cy="250.934" rx="4.53898" ry="4.67515" fill="#E70FAA"/>
<ellipse cx="241.578" cy="176.131" rx="4.53898" ry="4.67515" fill="#E70FAA"/>
<ellipse cx="241.578" cy="194.833" rx="4.53898" ry="4.67515" fill="#E70FAA"/>
<ellipse cx="241.578" cy="213.532" rx="4.53898" ry="4.67515" fill="#E70FAA"/>
<ellipse cx="241.578" cy="232.232" rx="4.53898" ry="4.67515" fill="#E70FAA"/>
<ellipse cx="241.578" cy="250.934" rx="4.53898" ry="4.67515" fill="#E70FAA"/>
<ellipse cx="259.737" cy="176.131" rx="4.53898" ry="4.67515" fill="#E70FAA"/>
<ellipse cx="259.737" cy="194.833" rx="4.53898" ry="4.67515" fill="#E70FAA"/>
<ellipse cx="259.737" cy="213.532" rx="4.53898" ry="4.67515" fill="#E70FAA"/>
<ellipse cx="259.737" cy="232.232" rx="4.53898" ry="4.67515" fill="#E70FAA"/>
<ellipse cx="259.737" cy="250.934" rx="4.53898" ry="4.67515" fill="#E70FAA"/>
<ellipse cx="278.834" cy="175.906" rx="4.53898" ry="4.67515" fill="#E70FAA"/>
<ellipse cx="278.834" cy="194.608" rx="4.53898" ry="4.67515" fill="#E70FAA"/>
<ellipse cx="278.834" cy="213.307" rx="4.53898" ry="4.67515" fill="#E70FAA"/>
<ellipse cx="278.834" cy="232.008" rx="4.53898" ry="4.67515" fill="#E70FAA"/>
<ellipse cx="278.834" cy="250.709" rx="4.53898" ry="4.67515" fill="#E70FAA"/>
<ellipse cx="296.996" cy="175.906" rx="4.53898" ry="4.67515" fill="#E70FAA"/>
<ellipse cx="296.996" cy="194.608" rx="4.53898" ry="4.67515" fill="#E70FAA"/>
<ellipse cx="296.996" cy="213.307" rx="4.53898" ry="4.67515" fill="#E70FAA"/>
<ellipse cx="296.996" cy="232.008" rx="4.53898" ry="4.67515" fill="#E70FAA"/>
<ellipse cx="296.996" cy="250.709" rx="4.53898" ry="4.67515" fill="#E70FAA"/>
<ellipse cx="315.149" cy="175.906" rx="4.53898" ry="4.67515" fill="#E70FAA"/>
<ellipse cx="315.149" cy="194.608" rx="4.53898" ry="4.67515" fill="#E70FAA"/>
<ellipse cx="315.149" cy="213.307" rx="4.53898" ry="4.67515" fill="#E70FAA"/>
<ellipse cx="315.149" cy="232.008" rx="4.53898" ry="4.67515" fill="#E70FAA"/>
<ellipse cx="315.149" cy="250.709" rx="4.53898" ry="4.67515" fill="#E70FAA"/>
<ellipse cx="333.304" cy="175.906" rx="4.53898" ry="4.67515" fill="#E70FAA"/>
<ellipse cx="333.304" cy="194.608" rx="4.53898" ry="4.67515" fill="#E70FAA"/>
<ellipse cx="333.304" cy="213.307" rx="4.53898" ry="4.67515" fill="#E70FAA"/>
<ellipse cx="333.304" cy="232.008" rx="4.53898" ry="4.67515" fill="#E70FAA"/>
<ellipse cx="333.304" cy="250.709" rx="4.53898" ry="4.67515" fill="#E70FAA"/>
<ellipse cx="351.46" cy="175.906" rx="4.53898" ry="4.67515" fill="#E70FAA"/>
<ellipse cx="351.46" cy="194.608" rx="4.53898" ry="4.67515" fill="#E70FAA"/>
<ellipse cx="351.46" cy="213.307" rx="4.53898" ry="4.67515" fill="#E70FAA"/>
<ellipse cx="351.46" cy="232.008" rx="4.53898" ry="4.67515" fill="#E70FAA"/>
<ellipse cx="351.46" cy="250.709" rx="4.53898" ry="4.67515" fill="#E70FAA"/>
<ellipse cx="278.834" cy="269.522" rx="4.53898" ry="4.67515" fill="#E70FAA"/>
<ellipse cx="278.834" cy="288.224" rx="4.53898" ry="4.67515" fill="#E70FAA"/>
<ellipse cx="278.834" cy="306.923" rx="4.53898" ry="4.67515" fill="#E70FAA"/>
<ellipse cx="278.834" cy="325.623" rx="4.53898" ry="4.67515" fill="#E70FAA"/>
<ellipse cx="278.834" cy="344.325" rx="4.53898" ry="4.67515" fill="#E70FAA"/>
<ellipse cx="296.996" cy="269.522" rx="4.53898" ry="4.67515" fill="#E70FAA"/>
<ellipse cx="296.996" cy="288.224" rx="4.53898" ry="4.67515" fill="#E70FAA"/>
<ellipse cx="296.996" cy="306.923" rx="4.53898" ry="4.67515" fill="#E70FAA"/>
<ellipse cx="296.996" cy="325.623" rx="4.53898" ry="4.67515" fill="#E70FAA"/>
<ellipse cx="296.996" cy="344.325" rx="4.53898" ry="4.67515" fill="#E70FAA"/>
<ellipse cx="315.149" cy="269.522" rx="4.53898" ry="4.67515" fill="#E70FAA"/>
<ellipse cx="315.149" cy="288.224" rx="4.53898" ry="4.67515" fill="#E70FAA"/>
<ellipse cx="315.149" cy="306.923" rx="4.53898" ry="4.67515" fill="#E70FAA"/>
<ellipse cx="315.149" cy="325.623" rx="4.53898" ry="4.67515" fill="#E70FAA"/>
<ellipse cx="315.149" cy="344.325" rx="4.53898" ry="4.67515" fill="#E70FAA"/>
<ellipse cx="333.304" cy="269.522" rx="4.53898" ry="4.67515" fill="#E70FAA"/>
<ellipse cx="333.304" cy="288.224" rx="4.53898" ry="4.67515" fill="#E70FAA"/>
<ellipse cx="333.304" cy="306.923" rx="4.53898" ry="4.67515" fill="#E70FAA"/>
<ellipse cx="333.304" cy="325.623" rx="4.53898" ry="4.67515" fill="#E70FAA"/>
<ellipse cx="333.304" cy="344.325" rx="4.53898" ry="4.67515" fill="#E70FAA"/>
<ellipse cx="351.46" cy="269.522" rx="4.53898" ry="4.67515" fill="#E70FAA"/>
<ellipse cx="351.46" cy="288.224" rx="4.53898" ry="4.67515" fill="#E70FAA"/>
<ellipse cx="351.46" cy="306.923" rx="4.53898" ry="4.67515" fill="#E70FAA"/>
<ellipse cx="351.46" cy="325.623" rx="4.53898" ry="4.67515" fill="#E70FAA"/>
<ellipse cx="351.46" cy="344.325" rx="4.53898" ry="4.67515" fill="#E70FAA"/>
<ellipse cx="187.802" cy="269.522" rx="4.53898" ry="4.67515" fill="#E70FAA"/>
<ellipse cx="187.802" cy="288.224" rx="4.53898" ry="4.67515" fill="#E70FAA"/>
<ellipse cx="187.802" cy="306.923" rx="4.53898" ry="4.67515" fill="#E70FAA"/>
<ellipse cx="187.802" cy="325.623" rx="4.53898" ry="4.67515" fill="#E70FAA"/>
<ellipse cx="187.802" cy="344.325" rx="4.53898" ry="4.67515" fill="#E70FAA"/>
<ellipse cx="205.963" cy="269.522" rx="4.53898" ry="4.67515" fill="#E70FAA"/>
<ellipse cx="205.963" cy="288.224" rx="4.53898" ry="4.67515" fill="#E70FAA"/>
<ellipse cx="205.963" cy="306.923" rx="4.53898" ry="4.67515" fill="#E70FAA"/>
<ellipse cx="205.963" cy="325.623" rx="4.53898" ry="4.67515" fill="#E70FAA"/>
<ellipse cx="205.963" cy="344.325" rx="4.53898" ry="4.67515" fill="#E70FAA"/>
<ellipse cx="224.118" cy="269.522" rx="4.53898" ry="4.67515" fill="#E70FAA"/>
<ellipse cx="224.118" cy="288.224" rx="4.53898" ry="4.67515" fill="#E70FAA"/>
<ellipse cx="224.118" cy="306.923" rx="4.53898" ry="4.67515" fill="#E70FAA"/>
<ellipse cx="224.118" cy="325.623" rx="4.53898" ry="4.67515" fill="#E70FAA"/>
<ellipse cx="224.118" cy="344.325" rx="4.53898" ry="4.67515" fill="#E70FAA"/>
<ellipse cx="242.271" cy="269.522" rx="4.53898" ry="4.67515" fill="#E70FAA"/>
<ellipse cx="242.271" cy="288.224" rx="4.53898" ry="4.67515" fill="#E70FAA"/>
<ellipse cx="242.271" cy="306.923" rx="4.53898" ry="4.67515" fill="#E70FAA"/>
<ellipse cx="242.271" cy="325.623" rx="4.53898" ry="4.67515" fill="#E70FAA"/>
<ellipse cx="242.271" cy="344.325" rx="4.53898" ry="4.67515" fill="#E70FAA"/>
<ellipse cx="260.429" cy="269.522" rx="4.53898" ry="4.67515" fill="#E70FAA"/>
<ellipse cx="260.429" cy="288.224" rx="4.53898" ry="4.67515" fill="#E70FAA"/>
<ellipse cx="260.429" cy="306.923" rx="4.53898" ry="4.67515" fill="#E70FAA"/>
<ellipse cx="260.429" cy="325.623" rx="4.53898" ry="4.67515" fill="#E70FAA"/>
<ellipse cx="260.429" cy="344.325" rx="4.53898" ry="4.67515" fill="#E70FAA"/>
<ellipse cx="96.7694" cy="269.522" rx="4.53898" ry="4.67515" fill="#E70FAA"/>
<ellipse cx="96.7694" cy="288.224" rx="4.53898" ry="4.67515" fill="#E70FAA"/>
<ellipse cx="96.7694" cy="306.923" rx="4.53898" ry="4.67515" fill="#E70FAA"/>
<ellipse cx="96.7694" cy="325.623" rx="4.53898" ry="4.67515" fill="#E70FAA"/>
<ellipse cx="96.7694" cy="344.325" rx="4.53898" ry="4.67515" fill="#E70FAA"/>
<ellipse cx="114.93" cy="269.522" rx="4.53898" ry="4.67515" fill="#E70FAA"/>
<ellipse cx="114.93" cy="288.224" rx="4.53898" ry="4.67515" fill="#E70FAA"/>
<ellipse cx="114.93" cy="306.923" rx="4.53898" ry="4.67515" fill="#E70FAA"/>
<ellipse cx="114.93" cy="325.623" rx="4.53898" ry="4.67515" fill="#E70FAA"/>
<ellipse cx="114.93" cy="344.325" rx="4.53898" ry="4.67515" fill="#E70FAA"/>
<ellipse cx="133.084" cy="269.522" rx="4.53898" ry="4.67515" fill="#E70FAA"/>
<ellipse cx="133.084" cy="288.224" rx="4.53898" ry="4.67515" fill="#E70FAA"/>
<ellipse cx="133.084" cy="306.923" rx="4.53898" ry="4.67515" fill="#E70FAA"/>
<ellipse cx="133.084" cy="325.623" rx="4.53898" ry="4.67515" fill="#E70FAA"/>
<ellipse cx="133.084" cy="344.325" rx="4.53898" ry="4.67515" fill="#E70FAA"/>
<ellipse cx="151.238" cy="269.522" rx="4.53898" ry="4.67515" fill="#E70FAA"/>
<ellipse cx="151.238" cy="288.224" rx="4.53898" ry="4.67515" fill="#E70FAA"/>
<ellipse cx="151.238" cy="306.923" rx="4.53898" ry="4.67515" fill="#E70FAA"/>
<ellipse cx="151.238" cy="325.623" rx="4.53898" ry="4.67515" fill="#E70FAA"/>
<ellipse cx="151.238" cy="344.325" rx="4.53898" ry="4.67515" fill="#E70FAA"/>
<ellipse cx="169.396" cy="269.522" rx="4.53898" ry="4.67515" fill="#E70FAA"/>
<ellipse cx="169.396" cy="288.224" rx="4.53898" ry="4.67515" fill="#E70FAA"/>
<ellipse cx="169.396" cy="306.923" rx="4.53898" ry="4.67515" fill="#E70FAA"/>
<ellipse cx="169.396" cy="325.623" rx="4.53898" ry="4.67515" fill="#E70FAA"/>
<ellipse cx="169.396" cy="344.325" rx="4.53898" ry="4.67515" fill="#E70FAA"/>
<ellipse cx="5.73625" cy="269.522" rx="4.53898" ry="4.67515" fill="#E70FAA"/>
<ellipse cx="5.73625" cy="288.224" rx="4.53898" ry="4.67515" fill="#E70FAA"/>
<ellipse cx="5.73625" cy="306.923" rx="4.53898" ry="4.67515" fill="#E70FAA"/>
<ellipse cx="5.73625" cy="325.623" rx="4.53898" ry="4.67515" fill="#E70FAA"/>
<ellipse cx="5.73625" cy="344.325" rx="4.53898" ry="4.67515" fill="#E70FAA"/>
<ellipse cx="23.8979" cy="269.522" rx="4.53898" ry="4.67515" fill="#E70FAA"/>
<ellipse cx="23.8979" cy="288.224" rx="4.53898" ry="4.67515" fill="#E70FAA"/>
<ellipse cx="23.8979" cy="306.923" rx="4.53898" ry="4.67515" fill="#E70FAA"/>
<ellipse cx="23.8979" cy="325.623" rx="4.53898" ry="4.67515" fill="#E70FAA"/>
<ellipse cx="23.8979" cy="344.325" rx="4.53898" ry="4.67515" fill="#E70FAA"/>
<ellipse cx="42.0522" cy="269.522" rx="4.53898" ry="4.67515" fill="#E70FAA"/>
<ellipse cx="42.0522" cy="288.224" rx="4.53898" ry="4.67515" fill="#E70FAA"/>
<ellipse cx="42.0522" cy="306.923" rx="4.53898" ry="4.67515" fill="#E70FAA"/>
<ellipse cx="42.0522" cy="325.623" rx="4.53898" ry="4.67515" fill="#E70FAA"/>
<ellipse cx="42.0522" cy="344.325" rx="4.53898" ry="4.67515" fill="#E70FAA"/>
<ellipse cx="60.2065" cy="269.522" rx="4.53898" ry="4.67515" fill="#E70FAA"/>
<ellipse cx="60.2065" cy="288.224" rx="4.53898" ry="4.67515" fill="#E70FAA"/>
<ellipse cx="60.2065" cy="306.923" rx="4.53898" ry="4.67515" fill="#E70FAA"/>
<ellipse cx="60.2065" cy="325.623" rx="4.53898" ry="4.67515" fill="#E70FAA"/>
<ellipse cx="60.2065" cy="344.325" rx="4.53898" ry="4.67515" fill="#E70FAA"/>
<ellipse cx="78.3637" cy="269.522" rx="4.53898" ry="4.67515" fill="#E70FAA"/>
<ellipse cx="78.3637" cy="288.224" rx="4.53898" ry="4.67515" fill="#E70FAA"/>
<ellipse cx="78.3637" cy="306.923" rx="4.53898" ry="4.67515" fill="#E70FAA"/>
<ellipse cx="78.3637" cy="325.623" rx="4.53898" ry="4.67515" fill="#E70FAA"/>
<ellipse cx="78.3637" cy="344.325" rx="4.53898" ry="4.67515" fill="#E70FAA"/>
<ellipse cx="278.834" cy="82.2906" rx="4.53898" ry="4.67515" fill="#E70FAA"/>
<ellipse cx="278.834" cy="100.993" rx="4.53898" ry="4.67515" fill="#E70FAA"/>
<ellipse cx="278.834" cy="119.692" rx="4.53898" ry="4.67515" fill="#E70FAA"/>
<ellipse cx="278.834" cy="138.392" rx="4.53898" ry="4.67515" fill="#E70FAA"/>
<ellipse cx="278.834" cy="157.094" rx="4.53898" ry="4.67515" fill="#E70FAA"/>
<ellipse cx="296.996" cy="82.2909" rx="4.53898" ry="4.67515" fill="#E70FAA"/>
<ellipse cx="296.996" cy="100.993" rx="4.53898" ry="4.67515" fill="#E70FAA"/>
<ellipse cx="296.996" cy="119.692" rx="4.53898" ry="4.67515" fill="#E70FAA"/>
<ellipse cx="296.996" cy="138.392" rx="4.53898" ry="4.67515" fill="#E70FAA"/>
<ellipse cx="296.996" cy="157.094" rx="4.53898" ry="4.67515" fill="#E70FAA"/>
<ellipse cx="315.149" cy="82.2909" rx="4.53898" ry="4.67515" fill="#E70FAA"/>
<ellipse cx="315.149" cy="100.993" rx="4.53898" ry="4.67515" fill="#E70FAA"/>
<ellipse cx="315.149" cy="119.692" rx="4.53898" ry="4.67515" fill="#E70FAA"/>
<ellipse cx="315.149" cy="138.392" rx="4.53898" ry="4.67515" fill="#E70FAA"/>
<ellipse cx="315.149" cy="157.094" rx="4.53898" ry="4.67515" fill="#E70FAA"/>
<ellipse cx="333.304" cy="82.2909" rx="4.53898" ry="4.67515" fill="#E70FAA"/>
<ellipse cx="333.304" cy="100.993" rx="4.53898" ry="4.67515" fill="#E70FAA"/>
<ellipse cx="333.304" cy="119.692" rx="4.53898" ry="4.67515" fill="#E70FAA"/>
<ellipse cx="333.304" cy="138.392" rx="4.53898" ry="4.67515" fill="#E70FAA"/>
<ellipse cx="333.304" cy="157.094" rx="4.53898" ry="4.67515" fill="#E70FAA"/>
<ellipse cx="351.46" cy="82.2909" rx="4.53898" ry="4.67515" fill="#E70FAA"/>
<ellipse cx="351.46" cy="100.993" rx="4.53898" ry="4.67515" fill="#E70FAA"/>
<ellipse cx="351.46" cy="119.692" rx="4.53898" ry="4.67515" fill="#E70FAA"/>
<ellipse cx="351.46" cy="138.392" rx="4.53898" ry="4.67515" fill="#E70FAA"/>
<ellipse cx="351.46" cy="157.094" rx="4.53898" ry="4.67515" fill="#E70FAA"/>
<ellipse cx="278.834" cy="7.37754" rx="4.53898" ry="4.67515" fill="#E70FAA"/>
<ellipse cx="278.834" cy="26.0763" rx="4.53898" ry="4.67515" fill="#E70FAA"/>
<ellipse cx="278.834" cy="44.7767" rx="4.53898" ry="4.67515" fill="#E70FAA"/>
<ellipse cx="278.834" cy="63.4781" rx="4.53898" ry="4.67515" fill="#E70FAA"/>
<ellipse cx="296.996" cy="7.37754" rx="4.53898" ry="4.67515" fill="#E70FAA"/>
<ellipse cx="296.996" cy="26.0763" rx="4.53898" ry="4.67515" fill="#E70FAA"/>
<ellipse cx="296.996" cy="44.7767" rx="4.53898" ry="4.67515" fill="#E70FAA"/>
<ellipse cx="296.996" cy="63.4781" rx="4.53898" ry="4.67515" fill="#E70FAA"/>
<ellipse cx="315.149" cy="7.37754" rx="4.53898" ry="4.67515" fill="#E70FAA"/>
<ellipse cx="315.149" cy="26.0763" rx="4.53898" ry="4.67515" fill="#E70FAA"/>
<ellipse cx="315.149" cy="44.7767" rx="4.53898" ry="4.67515" fill="#E70FAA"/>
<ellipse cx="315.149" cy="63.4781" rx="4.53898" ry="4.67515" fill="#E70FAA"/>
<ellipse cx="333.304" cy="7.37754" rx="4.53898" ry="4.67515" fill="#E70FAA"/>
<ellipse cx="333.304" cy="26.0763" rx="4.53898" ry="4.67515" fill="#E70FAA"/>
<ellipse cx="333.304" cy="44.7767" rx="4.53898" ry="4.67515" fill="#E70FAA"/>
<ellipse cx="333.304" cy="63.4781" rx="4.53898" ry="4.67515" fill="#E70FAA"/>
<ellipse cx="351.46" cy="7.37754" rx="4.53898" ry="4.67515" fill="#E70FAA"/>
<ellipse cx="351.46" cy="26.0763" rx="4.53898" ry="4.67515" fill="#E70FAA"/>
<ellipse cx="351.46" cy="44.7767" rx="4.53898" ry="4.67515" fill="#E70FAA"/>
<ellipse cx="351.46" cy="63.4781" rx="4.53898" ry="4.67515" fill="#E70FAA"/>
<ellipse cx="95.5717" cy="175.906" rx="4.53898" ry="4.67515" fill="#E70FAA"/>
<ellipse cx="95.5717" cy="194.608" rx="4.53898" ry="4.67515" fill="#E70FAA"/>
<ellipse cx="95.5717" cy="213.307" rx="4.53898" ry="4.67515" fill="#E70FAA"/>
<ellipse cx="95.5717" cy="232.008" rx="4.53898" ry="4.67515" fill="#E70FAA"/>
<ellipse cx="95.5717" cy="250.709" rx="4.53898" ry="4.67515" fill="#E70FAA"/>
<ellipse cx="113.732" cy="175.906" rx="4.53898" ry="4.67515" fill="#E70FAA"/>
<ellipse cx="113.732" cy="194.608" rx="4.53898" ry="4.67515" fill="#E70FAA"/>
<ellipse cx="113.732" cy="213.307" rx="4.53898" ry="4.67515" fill="#E70FAA"/>
<ellipse cx="113.732" cy="232.008" rx="4.53898" ry="4.67515" fill="#E70FAA"/>
<ellipse cx="113.732" cy="250.709" rx="4.53898" ry="4.67515" fill="#E70FAA"/>
<ellipse cx="131.887" cy="175.906" rx="4.53898" ry="4.67515" fill="#E70FAA"/>
<ellipse cx="131.887" cy="194.608" rx="4.53898" ry="4.67515" fill="#E70FAA"/>
<ellipse cx="131.887" cy="213.307" rx="4.53898" ry="4.67515" fill="#E70FAA"/>
<ellipse cx="131.887" cy="232.008" rx="4.53898" ry="4.67515" fill="#E70FAA"/>
<ellipse cx="131.887" cy="250.709" rx="4.53898" ry="4.67515" fill="#E70FAA"/>
<ellipse cx="150.04" cy="175.906" rx="4.53898" ry="4.67515" fill="#E70FAA"/>
<ellipse cx="150.04" cy="194.608" rx="4.53898" ry="4.67515" fill="#E70FAA"/>
<ellipse cx="150.04" cy="213.307" rx="4.53898" ry="4.67515" fill="#E70FAA"/>
<ellipse cx="150.04" cy="232.008" rx="4.53898" ry="4.67515" fill="#E70FAA"/>
<ellipse cx="150.04" cy="250.709" rx="4.53898" ry="4.67515" fill="#E70FAA"/>
<ellipse cx="168.198" cy="175.906" rx="4.53898" ry="4.67515" fill="#E70FAA"/>
<ellipse cx="168.198" cy="194.608" rx="4.53898" ry="4.67515" fill="#E70FAA"/>
<ellipse cx="168.198" cy="213.307" rx="4.53898" ry="4.67515" fill="#E70FAA"/>
<ellipse cx="168.198" cy="232.008" rx="4.53898" ry="4.67515" fill="#E70FAA"/>
<ellipse cx="168.198" cy="250.709" rx="4.53898" ry="4.67515" fill="#E70FAA"/>
<ellipse cx="4.53898" cy="175.906" rx="4.53898" ry="4.67515" fill="#E70FAA"/>
<ellipse cx="4.53898" cy="194.608" rx="4.53898" ry="4.67515" fill="#E70FAA"/>
<ellipse cx="4.53898" cy="213.307" rx="4.53898" ry="4.67515" fill="#E70FAA"/>
<ellipse cx="4.53898" cy="232.008" rx="4.53898" ry="4.67515" fill="#E70FAA"/>
<ellipse cx="4.53898" cy="250.709" rx="4.53898" ry="4.67515" fill="#E70FAA"/>
<ellipse cx="22.6996" cy="175.906" rx="4.53898" ry="4.67515" fill="#E70FAA"/>
<ellipse cx="22.6996" cy="194.608" rx="4.53898" ry="4.67515" fill="#E70FAA"/>
<ellipse cx="22.6996" cy="213.307" rx="4.53898" ry="4.67515" fill="#E70FAA"/>
<ellipse cx="22.6996" cy="232.008" rx="4.53898" ry="4.67515" fill="#E70FAA"/>
<ellipse cx="22.6996" cy="250.709" rx="4.53898" ry="4.67515" fill="#E70FAA"/>
<ellipse cx="40.8539" cy="175.906" rx="4.53898" ry="4.67515" fill="#E70FAA"/>
<ellipse cx="40.8539" cy="194.608" rx="4.53898" ry="4.67515" fill="#E70FAA"/>
<ellipse cx="40.8539" cy="213.307" rx="4.53898" ry="4.67515" fill="#E70FAA"/>
<ellipse cx="40.8539" cy="232.008" rx="4.53898" ry="4.67515" fill="#E70FAA"/>
<ellipse cx="40.8539" cy="250.709" rx="4.53898" ry="4.67515" fill="#E70FAA"/>
<ellipse cx="59.0077" cy="175.906" rx="4.53898" ry="4.67515" fill="#E70FAA"/>
<ellipse cx="59.0077" cy="194.608" rx="4.53898" ry="4.67515" fill="#E70FAA"/>
<ellipse cx="59.0077" cy="213.307" rx="4.53898" ry="4.67515" fill="#E70FAA"/>
<ellipse cx="59.0077" cy="232.008" rx="4.53898" ry="4.67515" fill="#E70FAA"/>
<ellipse cx="59.0077" cy="250.709" rx="4.53898" ry="4.67515" fill="#E70FAA"/>
<ellipse cx="77.1654" cy="175.906" rx="4.53898" ry="4.67515" fill="#E70FAA"/>
<ellipse cx="77.1654" cy="194.608" rx="4.53898" ry="4.67515" fill="#E70FAA"/>
<ellipse cx="77.1654" cy="213.307" rx="4.53898" ry="4.67515" fill="#E70FAA"/>
<ellipse cx="77.1654" cy="232.008" rx="4.53898" ry="4.67515" fill="#E70FAA"/>
<ellipse cx="77.1654" cy="250.709" rx="4.53898" ry="4.67515" fill="#E70FAA"/>
<ellipse cx="187.109" cy="7.37754" rx="4.53898" ry="4.67515" fill="#E70FAA"/>
<ellipse cx="187.109" cy="26.0763" rx="4.53898" ry="4.67515" fill="#E70FAA"/>
<ellipse cx="187.109" cy="44.7767" rx="4.53898" ry="4.67515" fill="#E70FAA"/>
<ellipse cx="187.109" cy="63.4781" rx="4.53898" ry="4.67515" fill="#E70FAA"/>
<ellipse cx="205.27" cy="7.37754" rx="4.53898" ry="4.67515" fill="#E70FAA"/>
<ellipse cx="205.27" cy="26.0763" rx="4.53898" ry="4.67515" fill="#E70FAA"/>
<ellipse cx="205.27" cy="44.7767" rx="4.53898" ry="4.67515" fill="#E70FAA"/>
<ellipse cx="205.27" cy="63.4781" rx="4.53898" ry="4.67515" fill="#E70FAA"/>
<ellipse cx="223.425" cy="7.37754" rx="4.53898" ry="4.67515" fill="#E70FAA"/>
<ellipse cx="223.425" cy="26.0763" rx="4.53898" ry="4.67515" fill="#E70FAA"/>
<ellipse cx="223.425" cy="44.7767" rx="4.53898" ry="4.67515" fill="#E70FAA"/>
<ellipse cx="223.425" cy="63.4781" rx="4.53898" ry="4.67515" fill="#E70FAA"/>
<ellipse cx="241.578" cy="7.37754" rx="4.53898" ry="4.67515" fill="#E70FAA"/>
<ellipse cx="241.578" cy="26.0763" rx="4.53898" ry="4.67515" fill="#E70FAA"/>
<ellipse cx="241.578" cy="44.7767" rx="4.53898" ry="4.67515" fill="#E70FAA"/>
<ellipse cx="241.578" cy="63.4781" rx="4.53898" ry="4.67515" fill="#E70FAA"/>
<ellipse cx="259.737" cy="7.37754" rx="4.53898" ry="4.67515" fill="#E70FAA"/>
<ellipse cx="259.737" cy="26.0763" rx="4.53898" ry="4.67515" fill="#E70FAA"/>
<ellipse cx="259.737" cy="44.7767" rx="4.53898" ry="4.67515" fill="#E70FAA"/>
<ellipse cx="259.737" cy="63.4781" rx="4.53898" ry="4.67515" fill="#E70FAA"/>
</g>
</svg>
