<svg width="11" height="12" viewBox="0 0 11 12" fill="none" xmlns="http://www.w3.org/2000/svg">
<path d="M8.95372 6.22337C9.15611 6.36854 9.33656 6.53319 9.49509 6.71731C9.65363 6.90143 9.79023 7.10325 9.90492 7.32278C10.0196 7.54231 10.1039 7.77424 10.1579 8.01855C10.2119 8.26287 10.2422 8.51249 10.249 8.76743C10.249 9.18879 10.1731 9.58536 10.0213 9.95714C9.8695 10.3289 9.66037 10.6529 9.3939 10.9291C9.12743 11.2053 8.8188 11.423 8.46801 11.5824C8.11722 11.7417 7.73944 11.8231 7.33468 11.8267C7.02773 11.8267 6.73091 11.7789 6.4442 11.6833C6.15749 11.5877 5.8944 11.4496 5.65491 11.269C5.41543 11.0884 5.20293 10.8724 5.01741 10.621C4.83189 10.3696 4.68854 10.0917 4.58735 9.78718H0.534668V1.62917H1.82991V0.949341H2.47753V1.62917H7.01087V0.949341H7.65849V1.62917H8.95372V6.22337ZM1.18229 2.30901V3.66868H8.30611V2.30901H7.65849V2.98884H7.01087V2.30901H2.47753V2.98884H1.82991V2.30901H1.18229ZM4.43556 9.10735C4.42545 8.99758 4.42039 8.88428 4.42039 8.76743C4.42039 8.46292 4.46086 8.16727 4.54182 7.88046C4.62277 7.59366 4.74588 7.32278 4.91116 7.06785H4.42039V6.38801H5.06801V6.84478C5.2063 6.6642 5.35977 6.50486 5.52842 6.36677C5.69707 6.22868 5.87922 6.11006 6.07485 6.01092C6.27049 5.91177 6.47456 5.83742 6.68706 5.78785C6.89956 5.73828 7.11543 5.71172 7.33468 5.70818C7.67198 5.70818 7.99579 5.7666 8.30611 5.88345V4.34851H1.18229V9.10735H4.43556ZM7.33468 11.1469C7.64837 11.1469 7.94182 11.0849 8.21503 10.961C8.48825 10.837 8.72773 10.6671 8.93349 10.4511C9.13924 10.2351 9.30115 9.9837 9.4192 9.69689C9.53726 9.41009 9.59797 9.10027 9.60134 8.76743C9.60134 8.43814 9.54232 8.13009 9.42426 7.84328C9.30621 7.55648 9.1443 7.30508 8.93855 7.08909C8.73279 6.8731 8.49331 6.70314 8.22009 6.57922C7.94688 6.45529 7.65174 6.39155 7.33468 6.38801C7.02098 6.38801 6.72753 6.44998 6.45432 6.5739C6.1811 6.69783 5.94162 6.86779 5.73586 7.08378C5.53011 7.29977 5.36821 7.55117 5.25015 7.83797C5.13209 8.12478 5.07138 8.4346 5.06801 8.76743C5.06801 9.09673 5.12703 9.40478 5.24509 9.69158C5.36315 9.97839 5.52505 10.2298 5.7308 10.4458C5.93656 10.6618 6.17604 10.8317 6.44926 10.9556C6.72247 11.0796 7.01761 11.1433 7.33468 11.1469ZM7.65849 8.42751H8.62992V9.10735H7.01087V7.06785H7.65849V8.42751ZM1.82991 6.38801H2.47753V7.06785H1.82991V6.38801ZM3.12515 6.38801H3.77277V7.06785H3.12515V6.38801ZM3.12515 5.02834H3.77277V5.70818H3.12515V5.02834ZM1.82991 7.74768H2.47753V8.42751H1.82991V7.74768ZM3.12515 7.74768H3.77277V8.42751H3.12515V7.74768ZM5.06801 5.70818H4.42039V5.02834H5.06801V5.70818ZM6.36325 5.70818H5.71563V5.02834H6.36325V5.70818ZM7.65849 5.70818H7.01087V5.02834H7.65849V5.70818Z" fill="white"/>
</svg>
