<svg width="11" height="11" viewBox="0 0 11 11" fill="none" xmlns="http://www.w3.org/2000/svg">
<path fill-rule="evenodd" clip-rule="evenodd" d="M10.3743 0.160161C10.4212 0.190613 10.4599 0.233138 10.4868 0.283702C10.5136 0.334267 10.5277 0.391195 10.5278 0.44909V10.6466C10.5278 10.7367 10.4937 10.8232 10.4329 10.887C10.3722 10.9507 10.2898 10.9865 10.204 10.9865H8.2611C8.17522 10.9865 8.09286 10.9507 8.03214 10.887C7.97141 10.8232 7.93729 10.7367 7.93729 10.6466V9.62685H7.28967V10.6466C7.28967 10.7367 7.25556 10.8232 7.19483 10.887C7.13411 10.9507 7.05174 10.9865 6.96586 10.9865H1.13729C1.05141 10.9865 0.969044 10.9507 0.908318 10.887C0.847592 10.8232 0.813477 10.7367 0.813477 10.6466V6.90751C0.813528 6.8362 0.834944 6.76671 0.874693 6.70888C0.914442 6.65105 0.97051 6.6078 1.03496 6.58527L4.6992 5.3031V3.16843C4.6992 3.10535 4.71592 3.04352 4.74748 2.98985C4.77905 2.93619 4.82422 2.8928 4.87794 2.86454L10.0589 0.145204C10.1083 0.119239 10.1632 0.106981 10.2184 0.109599C10.2737 0.112217 10.3273 0.129623 10.3743 0.160161ZM4.6992 6.01965L1.4611 7.15225V10.3067H4.6992V6.01965ZM5.34681 10.3067H6.64205V9.28693C6.64205 9.19678 6.67617 9.11032 6.7369 9.04657C6.79762 8.98283 6.87998 8.94701 6.96586 8.94701H8.2611C8.34698 8.94701 8.42935 8.98283 8.49007 9.04657C8.5508 9.11032 8.58491 9.19678 8.58491 9.28693V10.3067H9.88015V0.999076L5.34681 3.37849V10.3067Z" fill="white"/>
</svg>
