<svg width="8" height="6" viewBox="0 0 8 6" fill="none" xmlns="http://www.w3.org/2000/svg">
<path d="M1.33317 3.5C1.15636 3.5 0.98679 3.44732 0.861766 3.35355C0.736742 3.25979 0.666504 3.13261 0.666504 3C0.666504 2.86739 0.736742 2.74021 0.861766 2.64645C0.98679 2.55268 1.15636 2.5 1.33317 2.5C1.50998 2.5 1.67955 2.55268 1.80457 2.64645C1.9296 2.74021 1.99984 2.86739 1.99984 3C1.99984 3.13261 1.9296 3.25979 1.80457 3.35355C1.67955 3.44732 1.50998 3.5 1.33317 3.5ZM1.33317 5.5C1.15636 5.5 0.98679 5.44732 0.861766 5.35355C0.736742 5.25979 0.666504 5.13261 0.666504 5C0.666504 4.86739 0.736742 4.74021 0.861766 4.64645C0.98679 4.55268 1.15636 4.5 1.33317 4.5C1.50998 4.5 1.67955 4.55268 1.80457 4.64645C1.9296 4.74021 1.99984 4.86739 1.99984 5C1.99984 5.13261 1.9296 5.25979 1.80457 5.35355C1.67955 5.44732 1.50998 5.5 1.33317 5.5ZM3.33317 5C3.33317 5.13261 3.40341 5.25979 3.52843 5.35355C3.65346 5.44732 3.82303 5.5 3.99984 5.5C4.17665 5.5 4.34622 5.44732 4.47124 5.35355C4.59627 5.25979 4.6665 5.13261 4.6665 5C4.6665 4.86739 4.59627 4.74021 4.47124 4.64645C4.34622 4.55268 4.17665 4.5 3.99984 4.5C3.82303 4.5 3.65346 4.55268 3.52843 4.64645C3.40341 4.74021 3.33317 4.86739 3.33317 5ZM6.6665 5.5C6.48969 5.5 6.32012 5.44732 6.1951 5.35355C6.07008 5.25979 5.99984 5.13261 5.99984 5C5.99984 4.86739 6.07008 4.74021 6.1951 4.64645C6.32012 4.55268 6.48969 4.5 6.6665 4.5C6.84331 4.5 7.01288 4.55268 7.13791 4.64645C7.26293 4.74021 7.33317 4.86739 7.33317 5C7.33317 5.13261 7.26293 5.25979 7.13791 5.35355C7.01288 5.44732 6.84331 5.5 6.6665 5.5ZM3.33317 3C3.33317 3.13261 3.40341 3.25979 3.52843 3.35355C3.65346 3.44732 3.82303 3.5 3.99984 3.5C4.17665 3.5 4.34622 3.44732 4.47124 3.35355C4.59627 3.25979 4.6665 3.13261 4.6665 3C4.6665 2.86739 4.59627 2.74021 4.47124 2.64645C4.34622 2.55268 4.17665 2.5 3.99984 2.5C3.82303 2.5 3.65346 2.55268 3.52843 2.64645C3.40341 2.74021 3.33317 2.86739 3.33317 3ZM6.6665 3.5C6.48969 3.5 6.32012 3.44732 6.1951 3.35355C6.07008 3.25979 5.99984 3.13261 5.99984 3C5.99984 2.86739 6.07008 2.74021 6.1951 2.64645C6.32012 2.55268 6.48969 2.5 6.6665 2.5C6.84331 2.5 7.01288 2.55268 7.13791 2.64645C7.26293 2.74021 7.33317 2.86739 7.33317 3C7.33317 3.13261 7.26293 3.25979 7.13791 3.35355C7.01288 3.44732 6.84331 3.5 6.6665 3.5ZM1.33317 0.5C1.15636 0.5 0.98679 0.552679 0.861766 0.646447C0.736742 0.740215 0.666504 0.867392 0.666504 1C0.666504 1.13261 0.736742 1.25979 0.861766 1.35355C0.98679 1.44732 1.15636 1.5 1.33317 1.5H6.6665C6.84331 1.5 7.01288 1.44732 7.13791 1.35355C7.26293 1.25979 7.33317 1.13261 7.33317 1C7.33317 0.867392 7.26293 0.740215 7.13791 0.646447C7.01288 0.552679 6.84331 0.5 6.6665 0.5H1.33317Z" fill="#A7A7A7"/>
</svg>
