<svg width="10" height="10" viewBox="0 0 10 10" fill="none" xmlns="http://www.w3.org/2000/svg">
<path d="M0.333496 0.5V9.5H4.3335V7.75H5.66683V9.5H9.66683V0.5H0.333496ZM1.66683 1.5H3.00016V2.5H1.66683V1.5ZM4.3335 1.5H5.66683V2.5H4.3335V1.5ZM7.00016 1.5H8.3335V2.5H7.00016V1.5ZM1.66683 3.5H3.00016V4.5H1.66683V3.5ZM4.3335 3.5H5.66683V4.5H4.3335V3.5ZM7.00016 3.5H8.3335V4.5H7.00016V3.5ZM1.66683 5.5H3.00016V6.5H1.66683V5.5ZM4.3335 5.5H5.66683V6.5H4.3335V5.5ZM7.00016 5.5H8.3335V6.5H7.00016V5.5ZM1.66683 7.5H3.00016V8.5H1.66683V7.5ZM7.00016 7.5H8.3335V8.5H7.00016V7.5Z" fill="#A7A7A7"/>
</svg>
